<?xml version="1.0" standalone="no"?>
<!DOCTYPE svg PUBLIC "-//W3C//DTD SVG 20010904//EN"
        "http://www.w3.org/TR/2001/REC-SVG-20010904/DTD/svg10.dtd">
<svg version="1.0" xmlns="http://www.w3.org/2000/svg"
     width="80" height="80" viewBox="0 0 241.000000 241.000000"
     preserveAspectRatio="xMidYMid meet">

  <g transform="translate(0.000000,241.000000) scale(0.100000,-0.100000)"
     fill="#009900" stroke="none">
    <path d="M1141 2358 c-19 -5 -60 -28 -92 -51 l-59 -41 -123 -1 c-102 -1 -129
-5 -162 -22 -81 -42 -78 -32 -79 -316 -1 -257 8 -369 45 -590 48 -287 124
-520 192 -595 11 -12 21 -30 22 -40 1 -9 4 -30 6 -47 2 -20 -8 -50 -32 -92
-29 -53 -39 -63 -69 -68 -75 -14 -190 -99 -190 -140 0 -21 37 -52 87 -72 31
-13 41 -22 37 -33 -15 -39 -55 -223 -52 -238 2 -9 12 23 22 73 33 167 109 366
182 482 l34 53 229 0 229 0 45 -88 c73 -141 120 -280 171 -506 4 -15 9 -26 12
-23 3 3 -9 62 -26 132 -17 70 -30 128 -28 129 2 1 33 17 71 35 79 38 83 52 30
105 -35 35 -161 106 -189 106 -7 0 -27 26 -45 57 -36 62 -46 145 -21 166 38
31 113 227 158 412 62 258 95 508 99 755 4 296 -7 328 -115 317 -69 -7 -107
10 -156 70 -60 73 -141 98 -233 71z m155 -22 c34 -16 59 -36 73 -60 33 -53 73
-71 158 -71 42 0 77 -5 84 -12 6 -6 14 -35 17 -63 5 -50 3 -53 -38 -95 -52
-53 -145 -97 -210 -99 -37 -1 -64 7 -121 37 -103 52 -138 57 -190 23 -23 -15
-59 -34 -81 -42 -48 -17 -147 -18 -201 -3 -106 29 -187 189 -124 246 47 43 89
57 162 55 121 -4 170 6 228 45 100 68 161 77 243 39z m-607 -340 c9 -10 39
-29 66 -42 92 -43 242 -27 321 35 39 30 70 26 165 -21 67 -33 94 -42 134 -41
62 1 140 30 204 77 l49 36 7 -55 c12 -98 -10 -357 -51 -593 -44 -257 -118
-514 -179 -617 l-26 -45 -248 0 -248 0 -26 38 c-82 117 -162 420 -202 762 -20
163 -30 410 -20 485 l7 60 15 -30 c9 -17 23 -39 32 -49z m671 -1321 l0 -45
-229 0 -229 0 -5 38 c-2 20 -2 40 0 45 2 4 107 7 234 7 l229 0 0 -45z m166
-206 c65 -30 144 -96 144 -118 0 -14 -128 -77 -137 -67 -6 5 -67 158 -80 199
-7 23 -1 22 73 -14z m-750 -81 c-22 -57 -42 -105 -43 -107 -5 -8 -91 31 -108
49 -16 18 -16 20 1 50 26 44 129 106 180 109 6 1 -7 -45 -30 -101z"/>
    <path d="M1140 2289 c-19 -12 -44 -29 -55 -39 -45 -39 -106 -54 -221 -54 -132
-1 -154 -12 -154 -79 0 -33 7 -46 43 -82 25 -26 59 -48 85 -56 42 -12 46 -11
124 27 71 35 88 39 152 38 54 0 87 -7 135 -27 115 -48 234 -32 290 39 26 33
27 76 2 98 -12 11 -47 21 -85 26 -63 8 -156 49 -156 69 0 15 -76 61 -101 61
-13 0 -40 -10 -59 -21z m93 0 c12 -7 41 -29 64 -50 50 -46 102 -69 155 -69 21
0 52 -7 68 -15 58 -30 29 -106 -55 -141 -54 -22 -136 -18 -208 12 -35 15 -91
28 -129 31 -64 5 -72 3 -157 -37 -85 -40 -93 -42 -128 -32 -21 6 -57 29 -81
51 -40 37 -43 43 -40 83 4 60 28 71 139 64 109 -7 162 8 249 69 67 47 87 53
123 34z"/>
    <path d="M1151 2266 c-10 -11 -7 -17 11 -30 28 -20 52 -20 68 -1 10 12 10 18
0 30 -16 19 -64 19 -79 1z m73 -5 c9 -15 -22 -33 -44 -26 -31 10 -25 35 9 35
17 0 32 -4 35 -9z"/>
    <path d="M1082 2198 c-13 -13 1 -38 21 -38 6 0 2 6 -9 14 -18 14 -18 15 -1 21
20 8 67 -2 67 -14 0 -4 -10 -13 -22 -19 -13 -6 -18 -11 -12 -11 5 -1 19 6 30
14 19 15 19 15 0 30 -24 18 -58 19 -74 3z"/>
    <path d="M1290 2166 c0 -18 38 -46 62 -46 24 0 23 36 -1 50 -28 15 -61 12 -61
-4z m60 -11 c7 -9 10 -18 6 -22 -8 -9 -56 14 -56 27 0 15 36 12 50 -5z"/>
    <path d="M893 2143 c-42 -16 19 -50 61 -33 23 9 26 13 16 25 -12 15 -52 19
-77 8z m67 -12 c0 -13 -34 -23 -54 -15 -9 3 -13 10 -10 15 7 12 64 12 64 0z"/>
    <path d="M1043 2124 c-7 -3 -13 -15 -13 -25 0 -18 6 -20 48 -17 39 3 47 6 47
23 0 16 -7 20 -35 22 -19 1 -41 0 -47 -3z m72 -19 c0 -5 -17 -11 -37 -13 -36
-3 -47 5 -31 22 11 10 68 3 68 -9z"/>
    <path d="M1253 2113 c-31 -12 5 -63 45 -63 29 0 29 34 0 54 -24 17 -26 17 -45
9z m38 -13 c21 -12 26 -40 6 -40 -22 0 -51 26 -43 38 9 15 12 15 37 2z"/>
    <path d="M845 2077 c-26 -20 -10 -37 35 -37 43 0 61 23 30 40 -25 14 -43 13
-65 -3z m63 -14 c2 -9 -7 -13 -27 -13 -30 0 -39 9 -24 24 11 10 46 3 51 -11z"/>
    <path d="M993 1240 c-32 -19 -63 -66 -63 -93 0 -8 9 -26 21 -41 38 -49 131
-29 165 35 20 40 17 66 -11 94 -29 30 -68 32 -112 5z m107 -10 c30 -30 25 -67
-15 -107 -30 -30 -40 -34 -77 -31 -33 2 -45 8 -57 28 -12 23 -12 30 3 61 30
63 106 89 146 49z"/>
    <path d="M970 1181 c-14 -27 -2 -51 25 -51 25 0 39 23 30 51 -8 25 -41 24 -55
0z"/>
    <path d="M1244 1226 c-38 -38 -44 -77 -18 -114 30 -44 129 -20 159 38 33 64 7
110 -62 110 -38 0 -50 -5 -79 -34z m130 5 c40 -44 -20 -131 -89 -131 -58 0
-81 45 -51 99 28 50 108 68 140 32z"/>
    <path d="M1250 1185 c-17 -21 -8 -50 17 -53 17 -3 24 3 29 22 10 42 -19 63
-46 31z"/>
    <path d="M1122 1009 c-29 -11 -26 -40 6 -54 15 -7 22 -18 22 -36 0 -23 -4 -26
-22 -23 -21 4 -21 4 1 -6 27 -12 81 -4 81 11 0 6 -8 6 -19 -1 -29 -15 -33 -13
-29 18 2 19 9 28 25 30 12 2 27 10 34 19 11 13 10 18 -10 34 -25 21 -53 23
-89 8z m84 -13 c26 -20 8 -38 -40 -39 -47 -1 -69 19 -42 39 11 8 29 14 41 14
12 0 30 -6 41 -14z"/>
  </g>
</svg>
